<svg width="100" height="100" viewBox="0 0 100 100" fill="none" xmlns="http://www.w3.org/2000/svg">
<path fill-rule="evenodd" clip-rule="evenodd" d="M88.3761 63.4066C88.5974 62.482 88.8069 61.5415 89.004 60.5863H56.7125C56.7288 61.5402 56.7604 62.4808 56.8069 63.4066H88.3761ZM86.8207 69.0473H57.2947C58.8077 81.1285 63.107 89.6566 69.0675 90.4969C75.7006 91.4321 82.5605 82.5885 86.8207 69.0473ZM90.352 52.2338C90.2439 53.1468 90.1245 54.051 89.9941 54.9456H56.7906C56.8315 54.0142 56.8863 53.0737 56.9554 52.1253H90.3648L90.352 52.2338ZM57.5261 46.4846H90.8669C90.9244 45.5356 90.9674 44.5951 90.9965 43.6643H57.9314C57.7843 44.5937 57.649 45.5341 57.5261 46.4846ZM90.865 35.2033C90.9252 36.1281 90.9703 37.0687 91 38.0236H58.9957C59.2063 37.0675 59.4294 36.1269 59.6642 35.2033H90.865ZM61.3127 29.5626H90.2842C90.1456 28.5972 89.9887 27.6564 89.8141 26.7423H62.3176C61.97 27.6553 61.6347 28.5961 61.3127 29.5626ZM64.798 21.1017H88.4051C86.2483 14.3236 82.8735 9.91558 78.6741 9.32355C73.7968 8.63594 68.7969 13.2353 64.798 21.1017Z" fill="white"/>
<path fill-rule="evenodd" clip-rule="evenodd" d="M67.472 59.1761C67.1023 61.1159 66.6813 62.9995 66.2146 64.8168H35.0781C34.9548 62.9948 34.8903 61.1107 34.8878 59.1761H67.472ZM35.3208 67.6371H65.4382C64.8563 69.6143 64.2194 71.4995 63.5359 73.2778H36.1542C35.8072 71.4954 35.5279 69.6095 35.3208 67.6371ZM36.7812 76.0981C38.8594 84.3483 42.537 89.8317 47.2557 90.4969C52.6522 91.2577 58.1988 85.5461 62.3735 76.0981H36.7812ZM67.9666 56.3558C68.1833 55.0044 68.3751 53.6293 68.5402 52.2338C68.6004 51.7259 68.6564 51.2196 68.7085 50.7151H35.2564C35.0898 52.6277 34.981 54.5112 34.9273 56.3558H67.9666ZM68.9597 47.8948H35.5418C35.5537 47.7922 35.5657 47.6895 35.5778 47.5867C35.7925 45.7722 36.0523 43.9924 36.3533 42.2541H69.2183C69.1884 44.0961 69.1031 45.9796 68.9597 47.8948ZM69.2205 39.4338C69.1917 37.4952 69.1 35.6109 68.9487 33.7931H38.2238C37.7298 35.6063 37.2815 37.49 36.8849 39.4338H69.2205ZM68.6598 30.9728H39.0466C39.5502 29.357 40.0907 27.8073 40.6635 26.3321H67.9225C68.2159 27.81 68.4626 29.3602 68.6598 30.9728ZM67.2833 23.5118C66.6444 21.0228 65.8588 18.7902 64.9418 16.8712H45.4424C44.1639 18.7852 42.953 21.0158 41.8381 23.5118H67.2833ZM63.3475 14.0508H47.5721C50.5188 10.6365 53.7161 8.87998 56.8623 9.32355C59.3373 9.67247 61.5259 11.3469 63.3475 14.0508Z" fill="white"/>
<path d="M42.6526 51.9779C39.9998 74.3933 30.4704 91.5243 21.3681 90.241C12.2657 88.9577 7.03735 69.7462 9.69014 47.3308C12.3429 24.9154 21.8723 7.78438 30.9747 9.06764C40.077 10.3509 45.3054 29.5625 42.6526 51.9779Z" fill="white"/>
</svg>
